<?xml version="1.0" standalone="no"?><!-- Generator: Gravit.io --><svg xmlns="http://www.w3.org/2000/svg" xmlns:xlink="http://www.w3.org/1999/xlink" style="isolation:isolate" viewBox="0 -50 100 100" width="100px" height="100px"><defs><clipPath id="_clipPath_iOaOakfUz875OrP0ItfAlayJZetjNwN1"><rect width="100" height="100"/></clipPath></defs><g clip-path="url(#_clipPath_iOaOakfUz875OrP0ItfAlayJZetjNwN1)"><polygon points="76.273,65.169,50,80.338,23.727,65.169,23.727,34.831,50,19.662,76.273,34.831" fill="none" vector-effect="non-scaling-stroke" stroke-width="0.1" stroke="rgb(0,157,255)" stroke-linejoin="miter" stroke-linecap="square" stroke-miterlimit="3"/><polygon points="69.705,61.377,50,72.753,30.295,61.377,30.295,38.623,50,27.247,69.705,38.623" fill="none" vector-effect="non-scaling-stroke" stroke-width="0.5" stroke="rgb(0,157,255)" stroke-linejoin="miter" stroke-linecap="square" stroke-miterlimit="3"/><polygon points="62.325,57.116,50,64.231,37.675,57.116,37.675,42.884,50,35.769,62.325,42.884" fill="none" vector-effect="non-scaling-stroke" stroke-width="1" stroke="rgb(0,157,255)" stroke-linejoin="miter" stroke-linecap="square" stroke-miterlimit="3"/><path d=" M 8.948 26.299 L 29.474 14.448 L 33.169 20.847 L 16.337 30.565 L 16.337 50" fill="none" vector-effect="non-scaling-stroke" stroke-width="1" stroke="rgb(0,0,0)" stroke-linejoin="miter" stroke-linecap="square" stroke-miterlimit="3"/><path d=" M 23.727 34.831 L 50 19.662 L 50 11.13 L 66.831 20.847 L 70.526 14.448 L 50 2.597" fill="none" vector-effect="non-scaling-stroke" stroke-width="1" stroke="rgb(0,0,0)" stroke-linejoin="miter" stroke-linecap="square" stroke-miterlimit="3"/><path d=" M 23.727 50 L 23.727 65.169 L 30.295 61.377 L 40.148 67.065 L 33.169 79.153 L 16.337 69.435 L 8.948 73.701 L 8.948 50" fill="none" vector-effect="non-scaling-stroke" stroke-width="1" stroke="rgb(0,0,0)" stroke-linejoin="miter" stroke-linecap="square" stroke-miterlimit="3"/><path d=" M 50 97.403 L 50 72.753 L 59.852 67.065 L 66.831 79.153 L 83.663 69.435 L 91.052 73.701 L 91.052 50 L 76.273 50 L 76.273 65.169 L 69.705 61.377 L 69.705 50" fill="none" vector-effect="non-scaling-stroke" stroke-width="1" stroke="rgb(0,0,0)" stroke-linejoin="miter" stroke-linecap="square" stroke-miterlimit="3"/><path d=" M 69.705 38.623 L 59.852 32.935 L 63.137 27.247 L 76.273 34.831 L 91.052 26.299" fill="none" vector-effect="non-scaling-stroke" stroke-width="1" stroke="rgb(0,0,0)" stroke-linejoin="miter" stroke-linecap="square" stroke-miterlimit="3"/><circle vector-effect="non-scaling-stroke" cx="8.948054081081816" cy="26.298647972954637" r="0.9480540810818141" fill="rgb(255,255,255)" stroke-width="1" stroke="rgb(0,157,255)" stroke-linejoin="miter" stroke-linecap="square" stroke-miterlimit="3"/><circle vector-effect="non-scaling-stroke" cx="23.726754611892364" cy="34.83113470269096" r="0.9480540810818141" fill="rgb(255,255,255)" stroke-width="1" stroke="rgb(0,157,255)" stroke-linejoin="miter" stroke-linecap="square" stroke-miterlimit="3"/><circle vector-effect="non-scaling-stroke" cx="8.948054081081816" cy="50" r="0.9480540810818141" fill="rgb(255,255,255)" stroke-width="1" stroke="rgb(0,157,255)" stroke-linejoin="miter" stroke-linecap="square" stroke-miterlimit="3"/><circle vector-effect="non-scaling-stroke" cx="16.337404346487098" cy="50" r="0.9480540810818141" fill="rgb(255,255,255)" stroke-width="1" stroke="rgb(0,157,255)" stroke-linejoin="miter" stroke-linecap="square" stroke-miterlimit="3"/><circle vector-effect="non-scaling-stroke" cx="23.726754611892364" cy="49.99999999999996" r="0.9480540810818141" fill="rgb(255,255,255)" stroke-width="1" stroke="rgb(0,157,255)" stroke-linejoin="miter" stroke-linecap="square" stroke-miterlimit="3"/><circle vector-effect="non-scaling-stroke" cx="50" cy="2.5972959459092735" r="0.9480540810818141" fill="rgb(255,255,255)" stroke-width="1" stroke="rgb(0,157,255)" stroke-linejoin="miter" stroke-linecap="square" stroke-miterlimit="3"/><circle vector-effect="non-scaling-stroke" cx="69.70493404108072" cy="38.623351027018224" r="0.9480540810818212" fill="rgb(255,255,255)" stroke-width="1" stroke="rgb(0,157,255)" stroke-linejoin="miter" stroke-linecap="square" stroke-miterlimit="3"/><circle vector-effect="non-scaling-stroke" cx="91.0519459189182" cy="26.298647972954637" r="0.9480540810818212" fill="rgb(255,255,255)" stroke-width="1" stroke="rgb(0,157,255)" stroke-linejoin="miter" stroke-linecap="square" stroke-miterlimit="3"/><circle vector-effect="non-scaling-stroke" cx="69.70493404108072" cy="49.99999999999996" r="0.9480540810818212" fill="rgb(255,255,255)" stroke-width="1" stroke="rgb(0,157,255)" stroke-linejoin="miter" stroke-linecap="square" stroke-miterlimit="3"/><circle vector-effect="non-scaling-stroke" cx="50" cy="97.40270405409072" r="0.9480540810818141" fill="rgb(255,255,255)" stroke-width="1" stroke="rgb(0,157,255)" stroke-linejoin="miter" stroke-linecap="square" stroke-miterlimit="3"/></g></svg>
