<?xml version="1.0" encoding="UTF-8" standalone="no"?>
<!DOCTYPE svg PUBLIC "-//W3C//DTD SVG 1.1//EN" "http://www.w3.org/Graphics/SVG/1.1/DTD/svg11.dtd">
<svg width="100%" height="100%" viewBox="0 0 1814 2090" version="1.1" xmlns="http://www.w3.org/2000/svg" xmlns:xlink="http://www.w3.org/1999/xlink" xml:space="preserve" xmlns:serif="http://www.serif.com/" style="fill-rule:evenodd;clip-rule:evenodd;stroke-linejoin:round;stroke-miterlimit:1.41421;">
    <g transform="matrix(0.1,0,0,-0.1,0,2090)">
        <path d="M9015,20891C9004,20886 8982,20868 8965,20850L8935,20819L8930,19894L8925,18969L8025,18446C7530,18158 6765,17714 6325,17458L5526,16994L5495,17009C5451,17032 5315,17036 5267,17015C5217,16994 5144,16926 5117,16875C5099,16843 5095,16818 5095,16745C5095,16665 5098,16650 5122,16608C5195,16485 5328,16434 5470,16476C5568,16505 5659,16623 5660,16724C5661,16741 5711,16774 5903,16885C6036,16961 6474,17215 6875,17448C9180,18787 9067,18722 9092,18709C9105,18702 9309,18584 9545,18447C9782,18310 10254,18035 10595,17837C10936,17639 11562,17276 11985,17030C12409,16784 12976,16454 13245,16298C13515,16142 13932,15899 14173,15759L14610,15505L14610,14742L14610,13979L14553,14011C14521,14029 13764,14466 12870,14982L11246,15920L11234,15979C11218,16057 11201,16087 11142,16142C11052,16226 10919,16243 10810,16184C10753,16153 10721,16119 10687,16056C10670,16023 10665,15998 10665,15930C10665,15839 10680,15797 10734,15733C10800,15655 10936,15621 11041,15657L11098,15676L12851,14664L14605,13651L14607,13093L14610,12535L14569,12510C14449,12436 14406,12259 14477,12128C14507,12073 14542,12040 14604,12007C14663,11976 14797,11976 14856,12007C14919,12041 14953,12073 14985,12132C15011,12178 15014,12196 15015,12265C15015,12361 14993,12418 14931,12478L14890,12517L14885,14146C14883,15042 14878,15886 14875,16021C14869,16266 14869,16267 14845,16290C14831,16303 14818,16311 14815,16309C14813,16306 14818,16262 14826,16210C14845,16097 14843,15749 14824,15730C14812,15718 14798,15726 12445,17092C11939,17386 11201,17815 10805,18045C10409,18274 9888,18577 9648,18717L9210,18971L9208,19895L9205,20820L9168,20856C9138,20886 9123,20893 9083,20896C9057,20898 9026,20896 9015,20891Z" style="fill-rule:nonzero;"/>
        <path d="M8947,17306C8830,17262 8751,17156 8750,17040L8749,17005L7513,16292C6592,15761 6274,15582 6265,15590C6255,15598 6252,15596 6254,15584C6255,15571 5891,15357 4885,14776L3515,13985L3512,14689L3510,15394L3543,15421C3561,15436 3589,15472 3605,15501C3632,15549 3635,15564 3635,15640C3635,15730 3620,15773 3566,15837C3502,15913 3374,15947 3268,15916C3199,15896 3121,15829 3090,15763C3059,15696 3059,15594 3090,15522C3111,15474 3197,15380 3221,15380C3226,15380 3230,15086 3230,14686C3230,14061 3228,13992 3214,13986C3205,13983 3194,13982 3189,13986C3168,13999 3182,13961 3205,13944L3230,13925L3230,12258L3230,10590L2591,10590L1952,10590L1946,12568C1943,13655 1940,14582 1941,14627C1942,14707 1941,14711 1911,14737C1886,14761 1302,15101 411,15613L207,15730L140,15730C77,15730 72,15728 39,15694C9,15663 5,15653 5,15607C5,15569 11,15546 27,15525C42,15504 291,15355 857,15028L1665,14561L1667,12454C1669,10493 1670,10346 1686,10329C1702,10311 1734,10310 2467,10310L3230,10310L3230,8711L3230,7113L3253,7081C3270,7055 3691,6808 5181,5948L7087,4848L7093,4799C7115,4615 7291,4501 7473,4554C7551,4577 7632,4656 7655,4732C7689,4847 7666,4944 7585,5025C7505,5104 7406,5129 7297,5096L7250,5082L5377,6163L3505,7244L3501,10445L3498,13645L6204,15208C8468,16514 8914,16769 8930,16760C8969,16739 9064,16737 9126,16755C9210,16779 9291,16860 9315,16944C9356,17086 9291,17235 9161,17293C9103,17319 8998,17325 8947,17306Z" style="fill-rule:nonzero;"/>
        <path d="M17904,15713C17718,15612 16253,14760 16227,14739L16196,14713L16192,12652L16187,10590L15411,10590C14820,10590 14631,10587 14622,10578C14613,10569 14610,10184 14610,8906L14610,7245L12582,6074C11467,5430 10554,4904 10552,4906C10550,4907 10553,4930 10558,4957L10567,5007L10539,4993C10511,4979 10487,4938 10476,4885C10470,4857 10420,4827 9858,4502L9246,4148L9196,4172C9157,4190 9129,4195 9066,4195C8995,4195 8978,4191 8932,4165C8726,4052 8733,3761 8944,3653C9017,3616 9123,3616 9196,3653C9267,3689 9327,3760 9347,3831L9363,3888L12079,5455C13573,6318 14810,7034 14829,7048C14894,7096 14890,6983 14890,8725L14890,10310L16188,10310L16192,8248L16196,6187L16227,6161C16245,6147 16636,5917 17097,5650L17935,5166L17997,5165C18056,5165 18062,5167 18097,5203C18131,5237 18135,5245 18135,5293C18135,5331 18129,5354 18113,5375C18098,5396 17849,5545 17283,5872L16475,6339L16475,14561L17283,15028C17849,15355 18098,15504 18113,15525C18129,15546 18135,15569 18135,15607C18135,15654 18131,15663 18098,15696C18067,15728 18054,15734 18008,15737C17964,15740 17946,15736 17904,15713Z" style="fill-rule:nonzero;"/>
        <path d="M8750,13724C8176,13648 7666,13393 7270,12984C6698,12392 6461,11548 6635,10721C6668,10565 6753,10294 6799,10194C6845,10097 6935,9952 7091,9725C7339,9364 7641,8882 7859,8501C8172,7954 8463,7354 8821,6520C8940,6243 8966,6190 9000,6158C9053,6107 9087,6107 9140,6158C9174,6190 9200,6243 9319,6520C9883,7835 10329,8665 11015,9675C11168,9900 11293,10109 11341,10221C11430,10425 11507,10717 11535,10955C11556,11130 11551,11489 11525,11650C11388,12507 10818,13229 10022,13555C9816,13639 9593,13697 9370,13725C9216,13744 8896,13743 8750,13724ZM9275,12494C9709,12423 10091,12099 10244,11672C10334,11419 10334,11101 10244,10848C10091,10421 9717,10103 9275,10025C9159,10005 8961,10005 8845,10025C8247,10131 7808,10653 7808,11260C7808,11911 8308,12454 8956,12509C9062,12518 9154,12514 9275,12494Z" style="fill-rule:nonzero;"/>
        <path d="M1672,8254C1478,8157 1454,7880 1631,7763L1670,7737L1668,7038L1665,6339L857,5872C291,5545 42,5396 27,5375C11,5354 5,5331 5,5293C5,5245 9,5237 43,5203C78,5167 84,5165 143,5165L205,5166L1080,5672C1561,5950 1959,6186 1965,6195C1972,6207 1971,6214 1958,6224C1947,6232 1941,6250 1941,6276C1941,6297 1944,6637 1946,7032L1952,7748L1989,7778C2009,7794 2039,7831 2055,7861C2081,7908 2085,7925 2085,7995C2085,8065 2081,8082 2055,8129C1999,8231 1913,8280 1790,8280C1739,8280 1712,8274 1672,8254Z" style="fill-rule:nonzero;"/>
        <path d="M3277,5606C3185,5573 3113,5497 3089,5405C3063,5309 3102,5174 3173,5114C3252,5047 3359,5024 3449,5054C3476,5063 3504,5070 3510,5070C3521,5070 3929,4834 7190,2939C7567,2721 8111,2404 8400,2237L8925,1933L8930,1006L8935,80L8973,43C9008,8 9014,5 9070,5C9126,5 9132,8 9167,43L9205,80L9215,1932L9400,2039C9502,2098 9934,2349 10360,2597C11393,3197 12398,3781 13400,4362L14225,4841L14273,4829C14445,4788 14612,4906 14627,5080C14635,5168 14610,5241 14548,5306C14485,5372 14431,5395 14335,5395C14246,5394 14187,5367 14126,5299C14077,5244 14063,5213 14052,5126L14045,5067L13775,4910C13279,4622 12272,4037 11580,3635C11203,3416 10488,3001 9990,2712C9492,2423 9078,2186 9070,2186C9062,2186 8673,2408 8205,2680C7738,2951 6955,3406 6465,3690C5354,4336 4584,4783 4058,5088L3650,5325L3650,5365C3650,5460 3556,5575 3457,5605C3395,5623 3327,5624 3277,5606Z" style="fill-rule:nonzero;"/>
    </g>
</svg>
